<svg width="71" height="74" viewBox="0 0 71 74" fill="none" xmlns="http://www.w3.org/2000/svg">
<path d="M0.519033 28.0569L68.8197 27.5645L70.7227 73.9993L0.000976562 73.3428L0.519033 28.0569Z" fill="#FFD45F"/>
<path d="M0.519531 28.0568L35.1931 0L68.8203 27.5644" fill="#FFD45F"/>
<g opacity="0.3">
<path opacity="0.3" d="M0.519531 28.0568L35.1931 0L68.8203 27.5644" fill="black"/>
</g>
<path d="M0.00102859 73.3424C-0.0861682 73.2654 5.38159 67.295 12.2137 60.0064C19.0458 52.7178 24.6469 46.8807 24.7341 46.9628C24.8213 47.0448 19.3536 53.0101 12.5215 60.2987C5.68934 67.5874 0.0882254 73.4244 0.00102859 73.3424Z" fill="#263238"/>
<path d="M70.7222 73.9993C70.635 74.0762 65.3108 68.2289 58.8326 60.9352C52.3544 53.6414 47.1688 47.6659 47.256 47.5992C47.3432 47.5325 52.6673 53.3696 59.1455 60.6633C65.6237 67.9571 70.8094 73.9224 70.7222 73.9993Z" fill="#263238"/>
<g opacity="0.5">
<path opacity="0.5" d="M68.8203 27.5645L34.5211 54.9648L0.519531 28.0569" fill="black"/>
</g>
<path d="M3.96098 30.5961L3.8584 10.7306L63.6805 9.26367L64.3319 31.0013L34.5209 54.606L3.96098 30.5961Z" fill="white"/>
<path d="M25.2109 34.6477L27.6986 31.601L33.5152 35.8018L42.9683 24.6611L45.8201 27.1693L33.6588 41.1824L25.2109 34.6477Z" fill="#384054"/>
</svg>
