<svg width="176" height="177" viewBox="0 0 176 177" fill="none" xmlns="http://www.w3.org/2000/svg">
<path d="M81.249 169.749C126.121 173.281 165.361 139.767 168.892 94.895C172.424 50.0226 138.91 10.7834 94.0378 7.25184C49.1654 3.7203 9.92618 37.2337 6.39465 82.1062C2.86311 126.979 36.3765 166.218 81.249 169.749Z" fill="#EDF1F5"/>
<g style="mix-blend-mode:multiply" opacity="0.2">
<path d="M130.855 124.087L90.7309 40.7913C90.3706 40.0434 89.7279 39.4692 88.9443 39.1951C88.1606 38.921 87.3001 38.9694 86.5522 39.3296L22.2063 70.3256C21.4583 70.686 20.8842 71.3286 20.61 72.1123C20.3359 72.8959 20.3843 73.7564 20.7446 74.5044L60.869 157.799C61.2293 158.547 61.872 159.121 62.6556 159.395C63.4393 159.669 64.2997 159.621 65.0477 159.26L129.395 128.265C130.142 127.905 130.716 127.262 130.99 126.479C131.264 125.695 131.216 124.834 130.855 124.087Z" fill="#454E5E" fill-opacity="0.29"/>
</g>
<path d="M130.707 125.853L66.363 156.848C65.6151 157.209 64.7546 157.257 63.971 156.983C63.1873 156.709 62.5446 156.135 62.1843 155.387L22.06 72.0913C21.6998 71.3433 21.6514 70.4829 21.9255 69.6992C22.1996 68.9156 22.7738 68.2729 23.5217 67.9125L87.8676 36.9165C88.6155 36.5563 89.476 36.5079 90.2596 36.782C91.0433 37.0561 91.686 37.6303 92.0463 38.3782L132.171 121.674C132.349 122.044 132.453 122.446 132.476 122.857C132.499 123.267 132.441 123.678 132.305 124.066C132.169 124.454 131.958 124.812 131.684 125.118C131.41 125.425 131.078 125.674 130.707 125.853Z" fill="#FFD45F"/>
<path d="M46.625 86.3125L43.913 80.6651C43.7481 80.3229 43.4542 80.0601 43.0958 79.9343C42.7374 79.8084 42.3437 79.8298 42.0011 79.9937L36.3538 82.7058C36.0117 82.8708 35.7489 83.1647 35.6231 83.523C35.4973 83.8814 35.5186 84.275 35.6824 84.6177L38.3944 90.265C38.5595 90.607 38.8534 90.8696 39.2117 90.9955C39.57 91.1213 39.9636 91.1001 40.3063 90.9364L45.9536 88.2244C46.2957 88.0594 46.5584 87.7655 46.6843 87.4071C46.8101 87.0488 46.7888 86.6552 46.625 86.3125ZM45.6874 87.6701L40.0405 90.3833C39.8446 90.4771 39.6195 90.4893 39.4147 90.4172C39.2098 90.345 39.042 90.1945 38.9481 89.9987L36.2365 84.3525C36.1426 84.1568 36.1301 83.9319 36.2019 83.727C36.2737 83.5222 36.4239 83.3542 36.6194 83.26L42.2673 80.5485C42.4631 80.4551 42.6878 80.4429 42.8926 80.5146C43.0973 80.5864 43.2653 80.7362 43.3599 80.9315L46.0703 86.5776C46.1641 86.7733 46.1764 86.9982 46.1046 87.203C46.0329 87.4078 45.8828 87.5758 45.6874 87.6701Z" fill="white" fill-opacity="0.6"/>
<path d="M41.4279 88.1259C41.3566 88.1647 41.2784 88.1891 41.1976 88.1976C41.1169 88.2061 41.0353 88.1985 40.9575 88.1753L38.9185 87.5708C38.7614 87.5242 38.6292 87.4171 38.5511 87.273C38.473 87.129 38.4552 86.9598 38.5018 86.8026C38.5485 86.6455 38.6556 86.5134 38.7996 86.4352C38.9437 86.3571 39.1129 86.3393 39.27 86.3859L40.7165 86.8147L41.9996 82.4878C42.0227 82.41 42.0609 82.3375 42.1119 82.2744C42.163 82.2114 42.226 82.159 42.2974 82.1203C42.3687 82.0816 42.447 82.0574 42.5277 82.0489C42.6084 82.0405 42.69 82.048 42.7678 82.0711C42.8456 82.0941 42.9181 82.1323 42.9811 82.1834C43.0441 82.2345 43.0965 82.2975 43.1352 82.3689C43.1739 82.4402 43.1982 82.5184 43.2066 82.5991C43.2151 82.6799 43.2075 82.7614 43.1845 82.8392L41.7257 87.7586C41.7027 87.8364 41.6646 87.9089 41.6134 87.972C41.5623 88.035 41.4993 88.0873 41.4279 88.1259Z" fill="white" fill-opacity="0.6"/>
<path d="M70.9788 69.8109L51.6746 79.11C51.528 79.1806 51.369 79.2215 51.2066 79.2306C51.0442 79.2397 50.8816 79.2166 50.7281 79.1629C50.5746 79.1091 50.4331 79.0256 50.3119 78.9171C50.1907 78.8087 50.092 78.6774 50.0215 78.5309C49.951 78.3843 49.91 78.2253 49.9009 78.0629C49.8919 77.9005 49.9149 77.7379 49.9687 77.5844C50.0225 77.4309 50.106 77.2894 50.2144 77.1682C50.3228 77.047 50.4541 76.9483 50.6007 76.8778L69.9049 67.5787C70.0514 67.5082 70.2105 67.4672 70.3729 67.4581C70.5353 67.4491 70.6979 67.4721 70.8514 67.5259C71.0049 67.5796 71.1463 67.6631 71.2675 67.7716C71.3887 67.88 71.4874 68.0113 71.5579 68.1579C71.6285 68.3044 71.6694 68.4635 71.6785 68.6259C71.6875 68.7883 71.6645 68.9509 71.6108 69.1044C71.557 69.2579 71.4735 69.3993 71.365 69.5205C71.2566 69.6417 71.1253 69.7404 70.9788 69.8109Z" fill="white" fill-opacity="0.6"/>
<path d="M95.1841 63.4747L53.7575 83.4313C53.6109 83.5018 53.4519 83.5428 53.2895 83.5519C53.1271 83.5609 52.9645 83.5379 52.811 83.4841C52.6575 83.4303 52.5161 83.3468 52.3949 83.2384C52.2736 83.13 52.1749 82.9987 52.1044 82.8521C52.0339 82.7055 51.993 82.5465 51.9839 82.3841C51.9748 82.2217 51.9978 82.0591 52.0516 81.9056C52.1054 81.7521 52.1889 81.6107 52.2973 81.4895C52.4058 81.3682 52.537 81.2695 52.6836 81.199L94.1103 61.2425C94.2568 61.1719 94.4158 61.131 94.5782 61.1219C94.7406 61.1128 94.9032 61.1358 95.0568 61.1896C95.2103 61.2434 95.3517 61.3269 95.4729 61.4354C95.5941 61.5438 95.6928 61.675 95.7633 61.8216C95.8338 61.9682 95.8748 62.1272 95.8839 62.2896C95.8929 62.452 95.8699 62.6146 95.8161 62.7681C95.7624 62.9216 95.6789 63.063 95.5704 63.1843C95.462 63.3055 95.3307 63.4042 95.1841 63.4747Z" fill="white" fill-opacity="0.6"/>
<path d="M53.9541 101.527L51.2421 95.88C51.0772 95.5378 50.7833 95.275 50.4249 95.1491C50.0665 95.0232 49.6729 95.0446 49.3302 95.2086L43.6829 97.9206C43.3408 98.0856 43.078 98.3795 42.9522 98.7378C42.8264 99.0962 42.8477 99.4898 43.0115 99.8325L45.7235 105.48C45.8886 105.822 46.1825 106.084 46.5408 106.21C46.8991 106.336 47.2927 106.315 47.6354 106.151L53.2827 103.439C53.6248 103.274 53.8875 102.98 54.0134 102.622C54.1392 102.264 54.1179 101.87 53.9541 101.527ZM53.0165 102.885L47.3691 105.597C47.1733 105.691 46.9482 105.703 46.7433 105.631C46.5385 105.559 46.3706 105.408 46.2767 105.212L43.5651 99.5662C43.4712 99.3705 43.4588 99.1455 43.5306 98.9407C43.6024 98.7358 43.7525 98.5679 43.9481 98.4736L49.5943 95.7621C49.79 95.6686 50.0148 95.6564 50.2195 95.7282C50.4243 95.7999 50.5923 95.9498 50.6868 96.145L53.3989 101.792C53.4927 101.988 53.5051 102.213 53.4334 102.418C53.3618 102.622 53.2118 102.791 53.0165 102.885Z" fill="white" fill-opacity="0.6"/>
<path d="M48.7575 103.342C48.6862 103.381 48.608 103.405 48.5272 103.413C48.4465 103.422 48.3649 103.414 48.2871 103.391L46.2481 102.787C46.091 102.74 45.9588 102.633 45.8807 102.489C45.8025 102.345 45.7848 102.176 45.8314 102.019C45.878 101.861 45.9852 101.729 46.1292 101.651C46.2733 101.573 46.4425 101.555 46.5996 101.602L48.0461 102.031L49.3292 97.7036C49.3523 97.6258 49.3905 97.5533 49.4415 97.4903C49.4926 97.4272 49.5557 97.3748 49.627 97.3362C49.6983 97.2975 49.7766 97.2732 49.8573 97.2647C49.938 97.2563 50.0196 97.2638 50.0974 97.2869C50.1752 97.31 50.2477 97.3481 50.3107 97.3992C50.3738 97.4503 50.4261 97.5133 50.4648 97.5847C50.5035 97.656 50.5278 97.7343 50.5362 97.815C50.5447 97.8957 50.5371 97.9773 50.5141 98.0551L49.0553 102.974C49.0323 103.052 48.9941 103.125 48.943 103.188C48.8919 103.251 48.8289 103.303 48.7575 103.342Z" fill="white" fill-opacity="0.6"/>
<path d="M78.308 85.0261L59.0038 94.3251C58.8572 94.3957 58.6982 94.4367 58.5358 94.4457C58.3734 94.4548 58.2108 94.4318 58.0573 94.378C57.9038 94.3242 57.7624 94.2407 57.6411 94.1323C57.5199 94.0238 57.4212 93.8925 57.3507 93.746C57.2802 93.5994 57.2392 93.4404 57.2302 93.278C57.2211 93.1156 57.2441 92.953 57.2979 92.7995C57.3517 92.646 57.4352 92.5046 57.5436 92.3833C57.6521 92.2621 57.7833 92.1634 57.9299 92.0929L77.2312 82.7953C77.3777 82.7247 77.5368 82.6838 77.6992 82.6747C77.8616 82.6656 78.0242 82.6887 78.1777 82.7424C78.3312 82.7962 78.4726 82.8797 78.5938 82.9882C78.7151 83.0966 78.8137 83.2279 78.8842 83.3744C79.0264 83.6699 79.0456 84.0098 78.9376 84.3194C78.8295 84.629 78.6031 84.8831 78.308 85.0261Z" fill="white" fill-opacity="0.3"/>
<path d="M102.513 78.6895L61.0866 98.6462C60.94 98.7167 60.781 98.7577 60.6186 98.7667C60.4562 98.7758 60.2936 98.7528 60.1401 98.699C59.9866 98.6452 59.8452 98.5617 59.724 98.4533C59.6027 98.3448 59.504 98.2136 59.4335 98.067C59.363 97.9204 59.3221 97.7614 59.313 97.599C59.3039 97.4366 59.3269 97.274 59.3807 97.1205C59.4345 96.967 59.518 96.8256 59.6264 96.7043C59.7349 96.5831 59.8661 96.4844 60.0127 96.4139L101.439 76.4573C101.586 76.3868 101.745 76.3458 101.907 76.3367C102.07 76.3277 102.232 76.3507 102.386 76.4045C102.539 76.4583 102.681 76.5418 102.802 76.6502C102.923 76.7586 103.022 76.8899 103.092 77.0365C103.163 77.183 103.204 77.3421 103.213 77.5045C103.222 77.6669 103.199 77.8295 103.145 77.983C103.091 78.1365 103.008 78.2779 102.9 78.3991C102.791 78.5204 102.66 78.619 102.513 78.6895Z" fill="white" fill-opacity="0.3"/>
<path d="M61.2837 116.74L58.5717 111.093C58.4068 110.751 58.1129 110.488 57.7545 110.362C57.3961 110.236 57.0024 110.258 56.6598 110.421L51.0125 113.133C50.6704 113.299 50.4076 113.592 50.2818 113.951C50.1559 114.309 50.1773 114.703 50.341 115.045L53.0531 120.693C53.2182 121.035 53.5121 121.297 53.8704 121.423C54.2287 121.549 54.6223 121.528 54.965 121.364L60.6123 118.652C60.9544 118.487 61.2171 118.193 61.343 117.835C61.4688 117.476 61.4475 117.083 61.2837 116.74ZM60.3461 118.098L54.6992 120.811C54.5033 120.905 54.2782 120.917 54.0734 120.845C53.8685 120.773 53.7007 120.622 53.6068 120.426L50.8952 114.78C50.8013 114.585 50.7889 114.36 50.8606 114.155C50.9324 113.95 51.0826 113.782 51.2781 113.688L56.9243 110.976C57.1201 110.883 57.3449 110.87 57.5496 110.942C57.7543 111.014 57.9223 111.164 58.0169 111.359L60.7289 117.006C60.823 117.202 60.8356 117.427 60.7637 117.632C60.6919 117.838 60.5416 118.006 60.3459 118.1L60.3461 118.098Z" fill="white" fill-opacity="0.6"/>
<path d="M85.637 100.242L66.3328 109.541C66.1862 109.611 66.0272 109.652 65.8648 109.661C65.7024 109.67 65.5398 109.647 65.3863 109.594C65.2328 109.54 65.0914 109.456 64.9701 109.348C64.8489 109.239 64.7502 109.108 64.6797 108.962C64.6092 108.815 64.5682 108.656 64.5591 108.494C64.5501 108.331 64.5731 108.169 64.6269 108.015C64.6807 107.862 64.7642 107.72 64.8726 107.599C64.981 107.478 65.1123 107.379 65.2589 107.308L84.5631 98.0093C84.7096 97.9388 84.8687 97.8978 85.0311 97.8888C85.1935 97.8797 85.3561 97.9027 85.5096 97.9565C85.6631 98.0103 85.8045 98.0938 85.9257 98.2022C86.047 98.3107 86.1456 98.4419 86.2161 98.5885C86.2867 98.7351 86.3276 98.8941 86.3367 99.0565C86.3458 99.2189 86.3227 99.3815 86.269 99.535C86.2152 99.6885 86.1317 99.8299 86.0232 99.9512C85.9148 100.072 85.7835 100.171 85.637 100.242Z" fill="white" fill-opacity="0.3"/>
<path d="M109.842 93.9054L68.4157 113.862C68.2692 113.932 68.1101 113.973 67.9477 113.982C67.7853 113.992 67.6227 113.969 67.4692 113.915C67.3157 113.861 67.1743 113.777 67.0531 113.669C66.9318 113.561 66.8332 113.429 66.7627 113.283C66.6921 113.136 66.6512 112.977 66.6421 112.815C66.633 112.652 66.656 112.49 66.7098 112.336C66.7636 112.183 66.8471 112.041 66.9555 111.92C67.064 111.799 67.1952 111.7 67.3418 111.63L108.768 91.6731C108.915 91.6026 109.074 91.5616 109.236 91.5526C109.399 91.5435 109.561 91.5665 109.715 91.6203C109.868 91.6741 110.01 91.7576 110.131 91.866C110.252 91.9745 110.351 92.1057 110.422 92.2523C110.492 92.3989 110.533 92.5579 110.542 92.7203C110.551 92.8827 110.528 93.0453 110.474 93.1988C110.421 93.3523 110.337 93.4937 110.229 93.6149C110.12 93.7362 109.989 93.8349 109.842 93.9054Z" fill="white" fill-opacity="0.3"/>
<path d="M68.6128 131.958L65.9008 126.311C65.7359 125.968 65.442 125.706 65.0836 125.58C64.7252 125.454 64.3315 125.475 63.9889 125.639L58.3416 128.351C57.9995 128.516 57.7367 128.81 57.6109 129.169C57.485 129.527 57.5064 129.921 57.6701 130.263L60.3822 135.911C60.5473 136.253 60.8412 136.515 61.1995 136.641C61.5578 136.767 61.9514 136.746 62.2941 136.582L67.9414 133.87C68.2835 133.705 68.5462 133.411 68.6721 133.053C68.7979 132.694 68.7766 132.301 68.6128 131.958ZM67.6752 133.316L62.0283 136.029C61.8324 136.123 61.6073 136.135 61.4025 136.063C61.1976 135.991 61.0298 135.84 60.9359 135.644L58.2243 129.998C58.1304 129.802 58.1179 129.577 58.1897 129.373C58.2615 129.168 58.4117 129 58.6072 128.905L64.2534 126.194C64.4492 126.1 64.674 126.088 64.8787 126.16C65.0834 126.232 65.2514 126.382 65.346 126.577L68.058 132.224C68.1514 132.42 68.1635 132.645 68.0916 132.849C68.0198 133.054 67.8698 133.221 67.6746 133.316L67.6752 133.316Z" fill="white" fill-opacity="0.3"/>
<path d="M63.4157 133.771C63.3444 133.81 63.2661 133.835 63.1854 133.843C63.1047 133.852 63.0231 133.844 62.9453 133.821L60.9063 133.216C60.8285 133.193 60.756 133.155 60.693 133.104C60.6299 133.053 60.5776 132.99 60.5389 132.919C60.5002 132.847 60.4759 132.769 60.4675 132.688C60.459 132.608 60.4666 132.526 60.4896 132.448C60.5127 132.37 60.5509 132.298 60.602 132.235C60.6531 132.172 60.7161 132.119 60.7874 132.081C60.8587 132.042 60.937 132.018 61.0177 132.009C61.0984 132.001 61.18 132.008 61.2578 132.031L62.7043 132.46L63.9874 128.133C64.034 127.976 64.1411 127.844 64.2852 127.766C64.4292 127.688 64.5984 127.67 64.7556 127.717C64.9127 127.763 65.0448 127.87 65.123 128.014C65.2011 128.158 65.2189 128.328 65.1722 128.485L63.7135 133.404C63.6905 133.482 63.6523 133.554 63.6012 133.617C63.5501 133.681 63.4871 133.733 63.4157 133.771Z" fill="white" fill-opacity="0.3"/>
<path d="M92.9665 115.456L73.6624 124.756C73.5158 124.826 73.3568 124.867 73.1944 124.876C73.032 124.885 72.8694 124.862 72.7158 124.808C72.5623 124.755 72.4209 124.671 72.2997 124.563C72.1785 124.454 72.0798 124.323 72.0093 124.176C71.9388 124.03 71.8978 123.871 71.8887 123.708C71.8797 123.546 71.9027 123.383 71.9565 123.23C72.0102 123.076 72.0937 122.935 72.2022 122.814C72.3106 122.692 72.4419 122.594 72.5885 122.523L91.8927 113.224C92.0392 113.154 92.1983 113.113 92.3607 113.104C92.5231 113.095 92.6857 113.118 92.8392 113.171C92.9927 113.225 93.1341 113.309 93.2553 113.417C93.3765 113.526 93.4752 113.657 93.5457 113.803C93.6163 113.95 93.6572 114.109 93.6663 114.271C93.6754 114.434 93.6523 114.596 93.5985 114.75C93.5448 114.903 93.4613 115.045 93.3528 115.166C93.2444 115.287 93.1131 115.386 92.9665 115.456Z" fill="white" fill-opacity="0.3"/>
<path d="M117.171 109.12L75.7448 129.077C75.5983 129.147 75.4392 129.188 75.2768 129.197C75.1144 129.206 74.9518 129.183 74.7983 129.13C74.6448 129.076 74.5034 128.992 74.3822 128.884C74.2609 128.776 74.1623 128.644 74.0918 128.498C74.0212 128.351 73.9803 128.192 73.9712 128.03C73.9621 127.867 73.9851 127.705 74.0389 127.551C74.0927 127.398 74.1762 127.256 74.2847 127.135C74.3931 127.014 74.5244 126.915 74.6709 126.845L116.098 106.888C116.244 106.817 116.403 106.776 116.566 106.767C116.728 106.758 116.891 106.781 117.044 106.835C117.198 106.889 117.339 106.972 117.46 107.081C117.581 107.189 117.68 107.321 117.751 107.467C117.821 107.614 117.862 107.773 117.871 107.935C117.88 108.098 117.857 108.26 117.803 108.414C117.75 108.567 117.666 108.709 117.558 108.83C117.449 108.951 117.318 109.05 117.171 109.12Z" fill="white" fill-opacity="0.3"/>
<path d="M116.281 125.141L74.7958 145.123C74.6025 145.216 74.3801 145.229 74.1775 145.158C73.975 145.087 73.8089 144.939 73.7158 144.745C73.6227 144.552 73.6102 144.329 73.6811 144.127C73.752 143.924 73.9005 143.758 74.0938 143.665L115.579 123.683C115.772 123.59 115.994 123.577 116.197 123.648C116.399 123.719 116.565 123.867 116.659 124.061C116.752 124.254 116.764 124.477 116.693 124.679C116.622 124.882 116.474 125.048 116.281 125.141Z" fill="white" fill-opacity="0.3"/>
<g style="mix-blend-mode:multiply" opacity="0.2">
<path d="M134.232 132.217L133.952 39.7618C133.951 39.3506 133.869 38.9438 133.71 38.5644C133.552 38.1851 133.32 37.8407 133.029 37.5508C132.737 37.261 132.391 37.0314 132.011 36.8752C131.631 36.719 131.223 36.6393 130.812 36.6405L109.897 36.7038L109.883 31.9508C109.881 31.6262 109.751 31.3154 109.521 31.0867C109.291 30.8581 108.979 30.7302 108.654 30.7314L103.826 30.7443C103.547 30.7452 103.276 30.6507 103.058 30.4764C102.84 30.3021 102.688 30.0585 102.628 29.7861C102.236 28.0736 101.274 26.5453 99.8983 25.4524C98.5229 24.3595 96.8165 23.7671 95.0598 23.7725C93.3031 23.7779 91.6005 24.3809 90.2318 25.4823C88.8632 26.5836 87.91 28.1179 87.529 29.8328C87.4695 30.1054 87.3189 30.3496 87.102 30.5252C86.8851 30.7008 86.6149 30.7973 86.3359 30.7987L81.5072 30.8117C81.1827 30.8129 80.872 30.9429 80.6434 31.1731C80.4147 31.4033 80.2869 31.7149 80.2879 32.0394L80.3023 36.7923L59.3869 36.8556C58.5567 36.8582 57.7616 37.1905 57.1764 37.7793C56.5911 38.3681 56.2638 39.1653 56.2663 39.9955L56.5457 132.451C56.5483 133.281 56.8805 134.076 57.4694 134.661C58.0582 135.247 58.8554 135.574 59.6856 135.572L131.107 135.354C131.518 135.354 131.925 135.272 132.305 135.114C132.684 134.956 133.029 134.724 133.319 134.433C133.609 134.142 133.839 133.796 133.996 133.416C134.152 133.036 134.233 132.628 134.232 132.217ZM95.0821 30.4166C95.5537 30.4151 96.0151 30.5535 96.4081 30.8143C96.8011 31.075 97.1079 31.4465 97.2899 31.8816C97.4718 32.3167 97.5206 32.796 97.4302 33.2588C97.3399 33.7217 97.1143 34.1474 96.782 34.4821C96.4497 34.8168 96.0257 35.0454 95.5635 35.1392C95.1013 35.2329 94.6217 35.1875 94.1852 35.0088C93.7488 34.83 93.3752 34.5259 93.1116 34.1348C92.848 33.7437 92.7063 33.2833 92.7043 32.8117C92.703 32.4982 92.7636 32.1877 92.8824 31.8976C93.0013 31.6076 93.1761 31.3439 93.3969 31.1214C93.6177 30.899 93.8802 30.7223 94.1693 30.6013C94.4585 30.4804 94.7686 30.4176 95.0821 30.4166Z" fill="#959EB5"/>
</g>
<path d="M133.185 133.546L61.764 133.763C61.3529 133.764 60.9456 133.684 60.5653 133.528C60.185 133.372 59.8392 133.142 59.5477 132.853C59.2561 132.563 59.0245 132.218 58.866 131.839C58.7076 131.46 58.6254 131.053 58.6242 130.642L58.3443 38.1858C58.343 37.7747 58.4228 37.3673 58.579 36.9871C58.7352 36.6068 58.9647 36.261 59.2546 35.9694C59.5444 35.6778 59.8888 35.4462 60.2682 35.2878C60.6475 35.1293 61.0544 35.0471 61.4655 35.0459L132.887 34.8288C133.298 34.8276 133.705 34.9073 134.085 35.0635C134.466 35.2197 134.811 35.4493 135.103 35.7391C135.394 36.029 135.626 36.3734 135.785 36.7527C135.943 37.1321 136.025 37.5389 136.026 37.9501L136.306 130.405C136.307 130.816 136.227 131.224 136.071 131.604C135.915 131.984 135.686 132.33 135.396 132.622C135.106 132.914 134.762 133.145 134.382 133.304C134.003 133.462 133.596 133.545 133.185 133.546Z" fill="white"/>
<path d="M74.3733 61.61L74.3611 55.3455C74.3601 54.9652 74.2082 54.601 73.9388 54.3326C73.6694 54.0643 73.3046 53.9138 72.9244 53.9143L66.6598 53.9265C66.2797 53.9277 65.9155 54.0796 65.6472 54.3489C65.3789 54.6183 65.2284 54.983 65.2287 55.3632L65.2409 61.6278C65.2422 62.0079 65.3941 62.372 65.6635 62.6403C65.9328 62.9085 66.2975 63.0591 66.6776 63.0589L72.9421 63.0467C73.3223 63.0456 73.6865 62.8936 73.9548 62.6243C74.2231 62.3549 74.3736 61.9902 74.3733 61.61ZM72.9396 62.4301L66.675 62.4423C66.4579 62.4424 66.2496 62.3564 66.0959 62.203C65.9422 62.0497 65.8557 61.8416 65.8553 61.6245L65.843 55.361C65.8426 55.1439 65.9283 54.9354 66.0815 54.7815C66.2347 54.6276 66.4427 54.5407 66.6598 54.5401L72.9232 54.5278C73.1403 54.5278 73.3484 54.6137 73.5023 54.7668C73.6561 54.9199 73.7431 55.1276 73.7442 55.3446L73.7564 61.6092C73.7567 61.8263 73.6709 62.0346 73.5177 62.1885C73.3646 62.3424 73.1567 62.4293 72.9396 62.4301Z" fill="#E0E7F2"/>
<path d="M68.9029 61.005C68.8218 61.0093 68.7407 60.9975 68.6642 60.9703C68.5878 60.943 68.5174 60.901 68.4573 60.8465L66.8786 59.4216C66.8184 59.3672 66.7694 59.3015 66.7345 59.2283C66.6996 59.155 66.6795 59.0755 66.6754 58.9945C66.6712 58.9135 66.683 58.8324 66.7102 58.7559C66.7373 58.6794 66.7793 58.6091 66.8336 58.5488C66.888 58.4885 66.9537 58.4396 67.027 58.4047C67.1002 58.3698 67.1797 58.3497 67.2607 58.3455C67.3418 58.3414 67.4228 58.3532 67.4993 58.3803C67.5758 58.4075 67.6462 58.4494 67.7064 58.5038L68.8265 59.5143L71.8498 56.1635C71.9042 56.1032 71.9699 56.0543 72.0432 56.0194C72.1164 55.9845 72.1959 55.9644 72.2769 55.9602C72.358 55.9561 72.4391 55.9679 72.5155 55.995C72.592 56.0222 72.6624 56.0641 72.7226 56.1185C72.7829 56.1729 72.8319 56.2385 72.8667 56.3118C72.9016 56.3851 72.9217 56.4645 72.9259 56.5456C72.9301 56.6266 72.9182 56.7077 72.8911 56.7842C72.8639 56.8607 72.822 56.931 72.7676 56.9913L69.3304 60.8007C69.2762 60.8613 69.2105 60.9106 69.1371 60.9457C69.0637 60.9807 68.9841 61.0009 68.9029 61.005Z" fill="#FFD45F"/>
<path d="M103.462 57.2251L82.0351 57.2896C81.7066 57.2906 81.3913 57.1611 81.1583 56.9296C80.9253 56.6981 80.7939 56.3835 80.7928 56.0551C80.7918 55.7267 80.9213 55.4113 81.1528 55.1784C81.3843 54.9454 81.6989 54.8139 82.0273 54.8129L103.455 54.7484C103.783 54.7474 104.099 54.8769 104.332 55.1084C104.564 55.3399 104.696 55.6545 104.697 55.9829C104.698 56.3114 104.568 56.6267 104.337 56.8597C104.105 57.0926 103.791 57.2241 103.462 57.2251Z" fill="#E0E7F2"/>
<path d="M128.034 61.9464L82.048 62.0855C81.7195 62.0865 81.4042 61.957 81.1712 61.7255C80.9383 61.4939 80.8068 61.1794 80.8057 60.851C80.8047 60.5225 80.9342 60.2071 81.1657 59.9742C81.3973 59.7412 81.7118 59.6098 82.0403 59.6087L128.026 59.4696C128.354 59.4686 128.67 59.5981 128.903 59.8296C129.136 60.0611 129.267 60.3757 129.268 60.7041C129.269 61.0326 129.14 61.3479 128.908 61.5809C128.677 61.8139 128.362 61.9453 128.034 61.9464Z" fill="#E0E7F2"/>
<path d="M74.426 78.4986L74.4138 72.2341C74.4128 71.8539 74.2609 71.4896 73.9916 71.2213C73.7222 70.953 73.3573 70.8025 72.9771 70.803L66.7126 70.8152C66.3324 70.8163 65.9682 70.9682 65.6999 71.2376C65.4316 71.5069 65.2811 71.8717 65.2814 72.2519L65.2936 78.5164C65.2949 78.8965 65.4469 79.2607 65.7162 79.5289C65.9855 79.7972 66.3502 79.9477 66.7303 79.9475L72.9949 79.9354C73.375 79.9342 73.7392 79.7823 74.0075 79.513C74.2758 79.2436 74.4263 78.8788 74.426 78.4986ZM72.9932 79.3217L66.7259 79.3336C66.5088 79.3338 66.3005 79.2477 66.1468 79.0943C65.993 78.941 65.9065 78.7329 65.9061 78.5158L65.8938 72.2524C65.8934 72.0352 65.9792 71.8268 66.1323 71.6728C66.2855 71.5189 66.4935 71.4321 66.7107 71.4314L72.9741 71.4191C73.1911 71.4191 73.3993 71.5051 73.5531 71.6581C73.707 71.8112 73.7939 72.0189 73.795 72.236L73.8072 78.5005C73.8076 78.7171 73.7222 78.9251 73.5696 79.079C73.4171 79.2329 73.2099 79.3201 72.9932 79.3217Z" fill="#E0E7F2"/>
<path d="M68.9536 77.8927C68.8726 77.897 68.7915 77.8852 68.715 77.858C68.6385 77.8307 68.5682 77.7887 68.508 77.7342L66.9294 76.3093C66.8691 76.2549 66.8202 76.1892 66.7853 76.116C66.7504 76.0427 66.7303 75.9632 66.7261 75.8822C66.722 75.8012 66.7338 75.7201 66.7609 75.6436C66.7881 75.5671 66.8301 75.4967 66.8844 75.4365C66.9388 75.3762 67.0045 75.3273 67.0777 75.2924C67.151 75.2575 67.2304 75.2374 67.3115 75.2332C67.3925 75.2291 67.4736 75.2409 67.5501 75.268C67.6266 75.2952 67.6969 75.3371 67.7572 75.3915L68.8773 76.402L71.9006 73.0512C71.955 72.9909 72.0207 72.9419 72.0939 72.9071C72.1672 72.8722 72.2466 72.8521 72.3277 72.8479C72.4087 72.8437 72.4898 72.8556 72.5663 72.8827C72.6428 72.9099 72.7131 72.9518 72.7734 73.0062C72.8337 73.0605 72.8826 73.1262 72.9175 73.1995C72.9524 73.2728 72.9725 73.3522 72.9766 73.4333C72.9808 73.5143 72.969 73.5954 72.9418 73.6719C72.9147 73.7483 72.8727 73.8187 72.8184 73.879L69.3811 77.6895C69.3268 77.7499 69.261 77.799 69.1877 77.8338C69.1143 77.8687 69.0348 77.8887 68.9536 77.8927Z" fill="#FFD45F"/>
<path d="M103.512 74.1129L82.0849 74.1774C81.7564 74.1784 81.4411 74.0489 81.2081 73.8174C80.9751 73.5858 80.8437 73.2713 80.8426 72.9428C80.8416 72.6144 80.9711 72.299 81.2026 72.0661C81.4342 71.8331 81.7487 71.7017 82.0771 71.7006L103.505 71.6361C103.833 71.6351 104.148 71.7646 104.381 71.9961C104.614 72.2276 104.746 72.5422 104.747 72.8706C104.748 73.1991 104.618 73.5144 104.387 73.7474C104.155 73.9804 103.841 74.1118 103.512 74.1129Z" fill="#E0E7F2"/>
<path d="M128.085 78.835L82.0992 78.9741C81.7708 78.9751 81.4554 78.8456 81.2225 78.6141C80.9895 78.3826 80.8581 78.0681 80.857 77.7396C80.856 77.4112 80.9855 77.0958 81.217 76.8629C81.4485 76.6299 81.7631 76.4985 82.0915 76.4974L128.077 76.3583C128.406 76.3573 128.721 76.4868 128.954 76.7183C129.187 76.9498 129.318 77.2644 129.319 77.5928C129.32 77.9212 129.191 78.2366 128.959 78.4696C128.728 78.7025 128.413 78.834 128.085 78.835Z" fill="#E0E7F2"/>
<path d="M74.4759 95.3864L74.4637 89.1218C74.4633 88.7416 74.3119 88.377 74.0429 88.1083C73.7738 87.8396 73.4091 87.6886 73.0289 87.6886L66.7643 87.7008C66.3842 87.7019 66.02 87.8538 65.7517 88.1232C65.4834 88.3925 65.3329 88.7573 65.3332 89.1375L65.3454 95.402C65.3467 95.7821 65.4986 96.1463 65.768 96.4145C66.0373 96.6828 66.402 96.8333 66.7821 96.8331L73.0466 96.821C73.4261 96.8193 73.7895 96.6675 74.0574 96.3987C74.3252 96.1298 74.4757 95.7659 74.4759 95.3864ZM73.0444 96.2072L66.7799 96.2194C66.5628 96.2195 66.3545 96.1335 66.2008 95.9801C66.047 95.8268 65.9605 95.6187 65.9601 95.4016L65.9478 89.1381C65.9474 88.921 66.0332 88.7125 66.1863 88.5586C66.3395 88.4047 66.5475 88.3178 66.7647 88.3172L73.0281 88.3049C73.2451 88.3049 73.4533 88.3908 73.6071 88.5439C73.761 88.697 73.8479 88.9047 73.849 89.1217L73.8612 95.3863C73.8615 95.6035 73.7756 95.8119 73.6223 95.9658C73.4691 96.1197 73.261 96.2065 73.0438 96.2072L73.0444 96.2072Z" fill="#E0E7F2"/>
<path d="M103.564 91.0009L82.1376 91.066C81.8092 91.067 81.4938 90.9375 81.2608 90.706C81.0279 90.4745 80.8964 90.1599 80.8954 89.8315C80.8944 89.5031 81.0239 89.1877 81.2554 88.9547C81.4869 88.7218 81.8015 88.5903 82.1299 88.5893L103.557 88.5248C103.885 88.5238 104.201 88.6532 104.433 88.8848C104.666 89.1163 104.798 89.4308 104.799 89.7593C104.8 90.0876 104.67 90.4028 104.439 90.6356C104.207 90.8685 103.893 90.9999 103.564 91.0009Z" fill="#E0E7F2"/>
<path d="M128.136 95.7227L82.1505 95.8618C81.8221 95.8628 81.5067 95.7334 81.2737 95.5018C81.0408 95.2703 80.9093 94.9558 80.9083 94.6273C80.9073 94.2989 81.0368 93.9835 81.2683 93.7506C81.4998 93.5176 81.8144 93.3861 82.1428 93.3851L128.128 93.246C128.457 93.245 128.772 93.3744 129.005 93.6058C129.238 93.8372 129.37 94.1516 129.371 94.48C129.371 94.6426 129.34 94.8038 129.278 94.9543C129.216 95.1048 129.126 95.2417 129.011 95.3571C128.896 95.4725 128.76 95.5642 128.61 95.6269C128.46 95.6897 128.299 95.7222 128.136 95.7227Z" fill="#E0E7F2"/>
<path d="M74.5266 112.274L74.5144 106.01C74.5134 105.629 74.3615 105.265 74.0922 104.997C73.8228 104.728 73.4579 104.578 73.0777 104.578L66.8132 104.591C66.433 104.592 66.0688 104.744 65.8005 105.013C65.5322 105.282 65.3817 105.647 65.382 106.027L65.3942 112.292C65.3955 112.672 65.5475 113.036 65.8168 113.304C66.0861 113.573 66.4508 113.723 66.8309 113.723L73.0955 113.711C73.4756 113.71 73.8398 113.558 74.1081 113.288C74.3764 113.019 74.5269 112.654 74.5266 112.274ZM73.0951 113.095L66.8305 113.107C66.6134 113.107 66.4051 113.021 66.2514 112.868C66.0977 112.714 66.0112 112.506 66.0108 112.289L65.9985 106.026C65.9981 105.809 66.0838 105.6 66.237 105.446C66.3902 105.292 66.5982 105.206 66.8153 105.205L73.0788 105.193C73.2958 105.193 73.504 105.279 73.6578 105.432C73.8116 105.585 73.8986 105.792 73.8997 106.009L73.9119 112.274C73.9122 112.491 73.8264 112.699 73.6732 112.853C73.5201 113.007 73.3122 113.094 73.0951 113.095Z" fill="#E0E7F2"/>
<path d="M69.0562 111.67C68.9751 111.674 68.894 111.662 68.8175 111.635C68.7411 111.608 68.6707 111.566 68.6106 111.511L67.0319 110.087C66.9102 109.977 66.8371 109.823 66.8287 109.66C66.8202 109.496 66.8772 109.336 66.987 109.214C67.0967 109.092 67.2504 109.019 67.414 109.011C67.5777 109.002 67.738 109.059 67.8597 109.169L68.9798 110.179L72.0031 106.829C72.0575 106.768 72.1232 106.719 72.1965 106.684C72.2697 106.65 72.3492 106.629 72.4302 106.625C72.5113 106.621 72.5923 106.633 72.6688 106.66C72.7453 106.687 72.8157 106.729 72.8759 106.784C72.9362 106.838 72.9852 106.904 73.02 106.977C73.0549 107.05 73.075 107.13 73.0792 107.211C73.0834 107.292 73.0715 107.373 73.0444 107.449C73.0172 107.526 72.9753 107.596 72.9209 107.656L69.4837 111.466C69.4295 111.526 69.3638 111.576 69.2904 111.611C69.217 111.646 69.1374 111.666 69.0562 111.67Z" fill="#FFD45F"/>
<path d="M103.616 107.89L82.1884 107.955C81.86 107.956 81.5446 107.826 81.3116 107.595C81.0787 107.363 80.9472 107.049 80.9462 106.72C80.9452 106.392 81.0746 106.076 81.3062 105.843C81.5377 105.61 81.8522 105.479 82.1807 105.478L103.608 105.413C103.936 105.412 104.252 105.542 104.485 105.773C104.718 106.005 104.849 106.32 104.85 106.648C104.851 106.976 104.722 107.292 104.49 107.525C104.259 107.758 103.944 107.889 103.616 107.89Z" fill="#E0E7F2"/>
<path d="M128.186 112.611L82.2008 112.75C81.8724 112.751 81.557 112.622 81.324 112.39C81.0911 112.159 80.9596 111.844 80.9586 111.516C80.9576 111.188 81.0871 110.872 81.3186 110.639C81.5501 110.406 81.8647 110.275 82.1931 110.274L128.179 110.135C128.507 110.134 128.823 110.263 129.056 110.495C129.288 110.726 129.42 111.041 129.421 111.369C129.422 111.698 129.293 112.013 129.061 112.246C128.829 112.479 128.515 112.61 128.186 112.611Z" fill="#E0E7F2"/>
<path d="M120.476 126.682L74.4339 126.819C74.2194 126.82 74.0133 126.736 73.8611 126.584C73.7089 126.433 73.623 126.228 73.6223 126.013C73.6216 125.798 73.7062 125.592 73.8575 125.44C74.0087 125.288 74.2142 125.202 74.4288 125.201L120.471 125.064C120.685 125.063 120.891 125.148 121.043 125.299C121.196 125.45 121.281 125.656 121.282 125.87C121.283 126.085 121.198 126.291 121.047 126.443C120.896 126.595 120.69 126.681 120.476 126.682Z" fill="#FFD45F"/>
<path d="M105.639 28.9062C105.411 28.8561 105.201 28.7419 105.035 28.5771C104.869 28.4122 104.754 28.2034 104.702 27.9753C104.311 26.2627 103.348 24.7344 101.973 23.6415C100.597 22.5486 98.8908 21.9562 97.1341 21.9616C95.3774 21.967 93.6747 22.57 92.3061 23.6714C90.9375 24.7727 89.9843 26.307 89.6032 28.0219C89.5437 28.2945 89.3931 28.5387 89.1763 28.7143C88.9594 28.8899 88.6892 28.9864 88.4101 28.9878L83.5815 29.0008C83.257 29.002 82.9463 29.132 82.7177 29.3622C82.489 29.5924 82.3611 29.904 82.3622 30.2285L82.3837 37.3083L82.3885 38.8383L82.4077 45.2707L82.4094 45.8619C82.4097 45.9573 82.4288 46.0516 82.4656 46.1395C82.5024 46.2275 82.5563 46.3073 82.624 46.3743C82.6917 46.4414 82.7721 46.4945 82.8603 46.5304C82.9486 46.5664 83.0432 46.5846 83.1385 46.5839L83.7297 46.5822L110.691 46.5008L111.282 46.499C111.377 46.4987 111.472 46.4796 111.559 46.4428C111.647 46.406 111.727 46.3522 111.794 46.2844C111.861 46.2167 111.914 46.1364 111.95 46.0481C111.986 45.9598 112.005 45.8653 112.004 45.7699L112.002 45.1787L111.983 38.7463L111.978 37.2163L111.957 30.1365C111.955 29.8119 111.825 29.5011 111.595 29.2724C111.365 29.0438 111.053 28.916 110.728 28.9171L105.9 28.93C105.811 28.9303 105.723 28.9209 105.637 28.9021L105.639 28.9062ZM97.1575 28.6058C97.6291 28.6043 98.0905 28.7427 98.4835 29.0035C98.8765 29.2642 99.1833 29.6356 99.3653 30.0708C99.5472 30.5059 99.5961 30.9852 99.5057 31.448C99.4153 31.9109 99.1897 32.3366 98.8574 32.6713C98.5251 33.006 98.1011 33.2346 97.6389 33.3284C97.1767 33.4221 96.6971 33.3768 96.2606 33.198C95.8242 33.0192 95.4506 32.7151 95.187 32.324C94.9234 31.9329 94.7817 31.4725 94.7797 31.0009C94.7784 30.6874 94.839 30.3768 94.9578 30.0868C95.0767 29.7968 95.2515 29.5331 95.4723 29.3106C95.6931 29.0882 95.9556 28.9115 96.2447 28.7905C96.5339 28.6696 96.844 28.6068 97.1575 28.6058ZM110.435 45.1868L83.9798 45.2664C83.9128 45.2666 83.8485 45.2402 83.8009 45.193C83.7534 45.1458 83.7265 45.0816 83.7262 45.0146L83.7115 40.0595L110.672 39.9781L110.687 44.9332C110.687 44.9664 110.681 44.9994 110.668 45.0301C110.655 45.0609 110.637 45.0888 110.613 45.1124C110.59 45.1359 110.562 45.1546 110.531 45.1673C110.5 45.1801 110.467 45.1867 110.434 45.1867L110.435 45.1868Z" fill="#FFD45F"/>
</svg>
