<svg width="20" height="22" viewBox="0 0 20 22" fill="none" xmlns="http://www.w3.org/2000/svg">
<path d="M19.15 1.85L18.13 2.87C16.69 1.17 13.6 0 10 0C6.4 0 3.31 1.17 1.87 2.87L0.85 1.85C0.54 1.54 0 1.76 0 2.21V5.5C0 5.78 0.22 6 0.5 6H3.79C4.24 6 4.46 5.46 4.14 5.15L2.93 3.93C3.93 2.64 6.63 1.5 10 1.5C13.37 1.5 16.07 2.64 17.07 3.93L15.85 5.15C15.54 5.46 15.76 6 16.21 6H19.5C19.78 6 20 5.78 20 5.5V2.21C20 1.76 19.46 1.54 19.15 1.85Z" fill="#CBD0D2"/>
<path d="M12.5 11.71C12.22 11.57 11.92 11.5 11.61 11.5H11V5.5C11 4.67 10.33 4 9.5 4C8.67 4 8 4.67 8 5.5V16.24L4.56 15.52C4.19 15.44 3.8 15.56 3.53 15.83C3.1 16.27 3.1 16.97 3.54 17.41L7.55 21.42C7.92 21.79 8.43 22 8.96 22H15.37C16.37 22 17.21 21.27 17.35 20.28L17.98 15.82C18.1 14.97 17.66 14.13 16.89 13.75L12.5 11.71Z" fill="#CBD0D2"/>
</svg>
