<svg width="67" height="84" viewBox="0 0 67 84" fill="none" xmlns="http://www.w3.org/2000/svg">
<path d="M66.2963 21.5844C66.2963 21.5844 61.4539 60.336 53.4955 69.056C43.9757 79.515 36.9946 77.9855 33.1867 83.38C29.3281 77.9792 22.3977 79.515 12.878 69.0497C4.91953 60.3296 0.0898438 21.578 0.0898438 21.578C21.0332 11.4237 33.2185 0 33.2185 0C33.5358 0.361749 45.6575 11.5696 66.2963 21.5844Z" fill="#37474F"/>
<path d="M33.1613 0.0126957V83.38C29.3027 77.9792 22.3723 79.515 12.8526 69.0497C4.89412 60.3296 0.0644531 21.578 0.0644531 21.578C21.0078 11.4237 33.193 0 33.193 0L33.1613 0.0126957Z" fill="#455A64"/>
<path d="M61.181 24.7071C61.181 24.7071 57.0939 57.4422 50.392 64.8104C42.3129 73.6574 36.4297 72.3564 33.1994 76.9132C29.9436 72.3564 24.0858 73.6574 16.0068 64.8104C9.29221 57.4422 5.21777 24.7071 5.21777 24.7071C22.9244 16.1076 33.2057 6.47363 33.2057 6.47363C33.2057 6.47363 43.4426 16.1076 61.181 24.7071Z" fill="#455A64"/>
<path d="M5.17285 24.7071C5.17285 24.7071 9.25998 57.4358 15.9619 64.8104C24.0282 73.6511 29.8797 72.3627 33.1418 76.9068V6.46094C32.8498 6.80999 22.6066 16.2409 5.17285 24.7071Z" fill="#37474F"/>
<path d="M42.3422 50.8725C47.4106 45.8041 47.4106 37.5865 42.3422 32.5181C37.2738 27.4497 29.0562 27.4497 23.9878 32.5181C18.9193 37.5865 18.9193 45.8041 23.9878 50.8725C29.0562 55.941 37.2738 55.941 42.3422 50.8725Z" fill="#FFC727"/>
<path d="M31.683 50.1246L25.9014 44.1145L28.0465 42.0519L31.2324 45.3647L38.0993 34.8296L40.5935 36.4543L31.683 50.1246Z" fill="white"/>
</svg>
