<svg width="20" height="16" viewBox="0 0 20 16" fill="none" xmlns="http://www.w3.org/2000/svg">
<path d="M9.99967 3.41673C12.2997 3.41673 14.1663 5.2834 14.1663 7.5834C14.1663 8.0084 14.083 8.41673 13.9663 8.80007L16.5163 11.3501C17.6747 10.3251 18.5913 9.04173 19.1663 7.57507C17.7247 3.92507 14.1663 1.3334 9.99967 1.3334C8.94134 1.3334 7.92467 1.50007 6.96634 1.8084L8.77467 3.61673C9.16634 3.50007 9.57467 3.41673 9.99967 3.41673ZM2.25801 0.633398C1.93301 0.958399 1.93301 1.4834 2.25801 1.8084L3.89967 3.45007C2.54967 4.52507 1.47467 5.94173 0.833008 7.5834C2.27467 11.2417 5.83301 13.8334 9.99967 13.8334C11.2663 13.8334 12.4747 13.5834 13.5913 13.1501L15.858 15.4167C16.183 15.7417 16.708 15.7417 17.033 15.4167C17.358 15.0917 17.358 14.5667 17.033 14.2417L3.44134 0.633398C3.11634 0.308398 2.58301 0.308398 2.25801 0.633398ZM9.99967 11.7501C7.69967 11.7501 5.83301 9.8834 5.83301 7.5834C5.83301 6.94173 5.98301 6.3334 6.24134 5.80007L7.54967 7.1084C7.52467 7.2584 7.49967 7.41673 7.49967 7.5834C7.49967 8.96673 8.61634 10.0834 9.99967 10.0834C10.1663 10.0834 10.3163 10.0584 10.4747 10.0251L11.783 11.3334C11.2413 11.6001 10.6413 11.7501 9.99967 11.7501ZM12.4747 7.3084C12.3497 6.14173 11.433 5.2334 10.2747 5.1084L12.4747 7.3084Z" fill="#CBD0D2"/>
</svg>
