<?xml version="1.0" standalone="no"?>
<!DOCTYPE svg PUBLIC "-//W3C//DTD SVG 20010904//EN"
 "http://www.w3.org/TR/2001/REC-SVG-20010904/DTD/svg10.dtd">
<svg version="1.0" xmlns="http://www.w3.org/2000/svg"
 width="384.000000pt" height="384.000000pt" viewBox="0 0 384.000000 384.000000"
 preserveAspectRatio="xMidYMid meet">
<metadata>
Created by potrace 1.14, written by Peter Selinger 2001-2017
</metadata>
<g transform="translate(0.000000,384.000000) scale(0.100000,-0.100000)"
fill="#000000" stroke="none">
<path d="M134 3820 c-52 -24 -92 -65 -115 -115 -17 -38 -18 -131 -18 -1776 -1
-1540 1 -1740 14 -1780 19 -53 50 -91 102 -121 l38 -23 1751 -3 c1702 -2 1753
-2 1795 17 24 10 58 33 76 50 67 67 63 -58 63 1851 0 1528 -2 1732 -15 1771
-19 53 -50 91 -102 121 l-38 23 -1755 2 c-1706 2 -1756 2 -1796 -17z"/>
</g>
</svg>
