<svg width="20" height="20" viewBox="0 0 20 20" fill="none" xmlns="http://www.w3.org/2000/svg">
<path opacity="0.3" d="M17.7135 13.0316L14.3595 11.9667L14.3596 11.9668C14.0119 11.8552 13.6407 11.8396 13.2849 11.9216C12.9291 12.0034 12.6022 12.1799 12.3383 12.4322L11.4775 13.2931C11.3602 13.4072 11.2088 13.4796 11.0462 13.4993C10.8838 13.5189 10.7194 13.4845 10.5784 13.4015C9.89221 12.9782 9.23209 12.5141 8.6017 12.0114C8.06652 11.5847 7.58105 11.0992 7.15434 10.564C6.64295 9.93437 6.17027 9.27425 5.73871 8.58735C5.65574 8.4463 5.62129 8.28191 5.64093 8.11951C5.66043 7.95697 5.73288 7.80553 5.84717 7.68825L6.70798 6.79556C6.9609 6.53338 7.13826 6.20773 7.22122 5.85306C7.30434 5.49837 7.28997 5.1279 7.17981 4.78059L6.10223 1.42031C5.94724 0.935819 5.61647 0.527039 5.17497 0.274426C4.73361 0.0219326 4.21352 -0.0562052 3.71736 0.0556654L2.12327 0.419177C1.4563 0.575168 0.911034 1.05339 0.669533 1.69445C-1.9576 8.61299 3.95978 14.1666 4.46329 14.6702C4.85228 15.1037 8.65894 19.1336 13.8238 19.1336C15.0558 19.1447 16.2793 18.9285 17.4329 18.496C18.0739 18.2545 18.5521 17.7092 18.7081 17.0423L19.0716 15.4482C19.1928 14.9482 19.1199 14.421 18.868 13.9726C18.6159 13.5241 18.2034 13.188 17.7134 13.0314L17.7135 13.0316Z" fill="#FFD45F"/>
<path d="M10.9163 1.28007C12.6793 1.5004 14.3188 2.30215 15.5754 3.55848C16.8317 4.81495 17.6335 6.45444 17.8538 8.2176C17.8726 8.37316 17.948 8.51635 18.0656 8.61982C18.1831 8.72329 18.3347 8.77994 18.4915 8.7788H18.568C18.7388 8.75973 18.8948 8.67248 19.0004 8.53684C19.1062 8.4012 19.1524 8.22856 19.1291 8.05818C18.8782 6.00961 17.949 4.10373 16.4896 2.64446C15.0301 1.185 13.1244 0.255871 11.0759 0.00496968C10.848 -0.0234963 10.6223 0.0717212 10.4838 0.254759C10.3451 0.437794 10.3148 0.680883 10.4041 0.892396C10.4933 1.1039 10.6886 1.25178 10.9164 1.28026L10.9163 1.28007Z" fill="#FFD45F"/>
<path d="M10.3928 3.95143C11.6101 4.10259 12.7424 4.65568 13.6097 5.52319C14.4773 6.39056 15.0303 7.52278 15.1815 8.74012C15.2003 8.89569 15.2757 9.03887 15.3933 9.14234C15.5108 9.24582 15.6624 9.30232 15.8191 9.30118H15.902C16.0705 9.28055 16.2238 9.19358 16.3278 9.05951C16.432 8.92543 16.4784 8.75549 16.4568 8.58711C16.2698 7.08626 15.5876 5.69071 14.5181 4.62137C13.4487 3.55189 12.0531 2.86973 10.5524 2.6827C10.3245 2.65424 10.0989 2.74946 9.9603 2.93249C9.82182 3.11553 9.79136 3.35862 9.8806 3.57013C9.96984 3.78163 10.1651 3.92951 10.393 3.958L10.3928 3.95143Z" fill="#FFD45F"/>
<path d="M9.85814 7.15927C10.3963 7.22602 10.8967 7.47055 11.2801 7.85411C11.6637 8.23753 11.9082 8.73799 11.975 9.27612C11.9938 9.43168 12.0692 9.57487 12.1868 9.67834C12.3045 9.78181 12.4561 9.83846 12.6126 9.83732H12.6892C12.8565 9.81654 13.0086 9.73043 13.1126 9.59778C13.2165 9.46513 13.2638 9.29675 13.244 9.1295C13.1423 8.3091 12.7696 7.54623 12.1852 6.96183C11.6007 6.37728 10.8378 6.00464 10.0175 5.90302C9.78967 5.87569 9.56464 5.97191 9.42702 6.15551C9.28953 6.33926 9.26035 6.58222 9.35058 6.79315C9.44082 7.00423 9.63667 7.15097 9.86452 7.17828L9.85814 7.15927Z" fill="#FFD45F"/>
</svg>
