<svg width="14" height="13" viewBox="0 0 14 13" fill="none" xmlns="http://www.w3.org/2000/svg">
<g filter="url(#filter0_i_12_2377)">
<path d="M6.04894 1.18486C6.3483 0.263554 7.6517 0.263553 7.95106 1.18486L8.79611 3.78568C8.92999 4.1977 9.31394 4.47666 9.74717 4.47666H12.4818C13.4505 4.47666 13.8533 5.71628 13.0696 6.28568L10.8572 7.89307C10.5067 8.14771 10.3601 8.59908 10.494 9.0111L11.339 11.6119C11.6384 12.5332 10.5839 13.2993 9.80017 12.7299L7.58779 11.1226C7.2373 10.8679 6.7627 10.8679 6.41222 11.1226L4.19983 12.7299C3.41612 13.2993 2.36164 12.5332 2.66099 11.6119L3.50604 9.0111C3.63992 8.59908 3.49326 8.14771 3.14277 7.89307L0.930391 6.28568C0.146677 5.71628 0.549452 4.47666 1.51818 4.47666H4.25283C4.68606 4.47666 5.07001 4.1977 5.20389 3.78568L6.04894 1.18486Z" fill="#DEB033"/>
</g>
<defs>
<filter id="filter0_i_12_2377" x="0.516113" y="0.494141" width="12.9678" height="12.4316" filterUnits="userSpaceOnUse" color-interpolation-filters="sRGB">
<feFlood flood-opacity="0" result="BackgroundImageFix"/>
<feBlend mode="normal" in="SourceGraphic" in2="BackgroundImageFix" result="shape"/>
<feColorMatrix in="SourceAlpha" type="matrix" values="0 0 0 0 0 0 0 0 0 0 0 0 0 0 0 0 0 0 127 0" result="hardAlpha"/>
<feOffset dy="1"/>
<feComposite in2="hardAlpha" operator="arithmetic" k2="-1" k3="1"/>
<feColorMatrix type="matrix" values="0 0 0 0 0 0 0 0 0 0 0 0 0 0 0 0 0 0 0.25 0"/>
<feBlend mode="normal" in2="shape" result="effect1_innerShadow_12_2377"/>
</filter>
</defs>
</svg>
