<svg width="113" height="47" viewBox="0 0 113 47" fill="none" xmlns="http://www.w3.org/2000/svg">
<path fill-rule="evenodd" clip-rule="evenodd" d="M37.6777 39.5132H52.5675V25.9559H37.6777V39.5132ZM32.9238 43.8431H57.3188V21.627H32.9238V43.8431Z" fill="white"/>
<path fill-rule="evenodd" clip-rule="evenodd" d="M26.4473 15.9088H31.1907V11.3057H26.4473V15.9088Z" fill="white"/>
<path fill-rule="evenodd" clip-rule="evenodd" d="M26.4473 43.8431H31.1907V21.627H26.4473V43.8431Z" fill="white"/>
<path fill-rule="evenodd" clip-rule="evenodd" d="M19.6504 11.3057V21.1746H0V43.3908H19.6504H24.3933V39.0614V30.8155H19.6504V39.0614H4.75149V25.504H24.3933V24.8817V21.1746V11.3057H19.6504Z" fill="white"/>
<path fill-rule="evenodd" clip-rule="evenodd" d="M56.6777 11.3412C56.6896 11.3048 56.7053 11.2699 56.7177 11.2326C56.9633 10.4024 56.9363 9.5648 56.6912 8.79457L64.2187 5.72005C64.7482 6.51289 65.5962 7.13124 66.6595 7.3942C67.243 7.53921 67.8308 7.55985 68.3916 7.47776L70.1927 13.5953C68.8034 14.0215 67.6073 14.8989 66.8543 16.0864L56.6777 11.3412ZM73.7462 13.4995C72.9403 13.3004 72.1296 13.2562 71.3518 13.3506L69.5263 7.15532C70.5729 6.6982 71.4042 5.84933 71.7318 4.75027C72.3304 2.74581 71.0301 0.676964 68.8284 0.132841C66.6246 -0.412757 64.3538 0.77183 63.7563 2.77776C63.5593 3.43838 63.5723 4.10587 63.7526 4.72471L56.2348 7.79824C55.6017 6.79454 54.5502 6.01006 53.2267 5.68319C50.5814 5.02749 47.8523 6.45145 47.1345 8.86093C46.4139 11.2699 47.9781 13.7546 50.624 14.4083C52.8354 14.9574 55.0986 14.0515 56.204 12.3346L66.3634 17.0744C66.3207 17.187 66.2765 17.2961 66.2419 17.4126C65.3567 20.378 67.2799 23.4358 70.5395 24.2434C73.798 25.049 77.1575 23.2976 78.041 20.3318C78.9273 17.3644 77.0042 14.3056 73.7462 13.4995Z" fill="#FFD45F"/>
<path fill-rule="evenodd" clip-rule="evenodd" d="M67.3516 34.0576V43.7457H68.5174V34.0576H67.3516ZM69.3047 40.5607C69.3047 42.7372 71.1409 43.905 73.0355 43.905C74.9446 43.905 76.7663 42.7372 76.7663 40.5607C76.7663 38.3842 74.9446 37.2163 73.0355 37.2163C71.1409 37.2163 69.3047 38.3842 69.3047 40.5607ZM75.6006 40.5606C75.6006 42.0337 74.4638 42.8963 73.0356 42.8963C71.6074 42.8963 70.4707 42.0337 70.4707 40.5606C70.4707 39.0874 71.6074 38.2248 73.0356 38.2248C74.4638 38.2248 75.6006 39.0874 75.6006 40.5606ZM77.043 40.5607C77.043 42.4717 78.544 43.905 80.5406 43.905C81.8814 43.905 82.7412 43.3344 83.2513 42.7637V43.7458C83.2658 45.3251 81.9397 45.8427 80.4532 45.8427C79.4913 45.8427 78.5878 45.617 77.7571 45.1924V46.2275C78.5878 46.6124 79.5642 46.8247 80.5989 46.8247C82.5372 46.8247 84.4172 45.9356 84.4172 43.7458V37.3756H83.3679V38.4373C82.7412 37.787 81.8814 37.2163 80.5406 37.2163C78.544 37.2163 77.043 38.6496 77.043 40.5607ZM83.2514 39.7643V41.4896C82.8579 42.2327 81.9252 42.9229 80.6719 42.9229C79.3166 42.9229 78.209 42.0204 78.209 40.5606C78.209 39.1007 79.3166 38.1983 80.6719 38.1983C81.9252 38.1983 82.8579 38.9415 83.2514 39.7643ZM86.8514 43.7457V37.3754H85.6855V43.7457H86.8514ZM87.0274 35.345C87.0274 34.9071 86.6776 34.6682 86.2695 34.6682C85.8615 34.6682 85.5117 34.9071 85.5117 35.345C85.5117 35.7963 85.8615 36.0219 86.2695 36.0219C86.6776 36.0219 87.0274 35.7963 87.0274 35.345ZM87.7129 39.0477C87.7129 41.3304 92.1724 40.7996 92.1724 42.14C92.1724 42.777 91.3854 42.923 90.3944 42.923C89.52 42.923 88.4561 42.6841 87.742 42.2461V43.2813C88.3978 43.6662 89.4617 43.905 90.4527 43.905C91.9683 43.905 93.3383 43.4405 93.3383 42.1134C93.3383 39.8175 88.8933 40.4014 88.8933 39.0212C88.8933 38.3975 89.6949 38.1718 90.4527 38.1718C91.298 38.1718 92.2744 38.424 92.8573 38.7691V37.7604C92.2015 37.4419 91.3125 37.2163 90.3798 37.2163C89.0682 37.2163 87.7129 37.7339 87.7129 39.0477ZM94.4601 35.398V37.3754H93.1484V38.3575H94.4601V41.8346C94.4601 43.2281 95.4219 43.8916 96.7772 43.8916C97.4476 43.8916 98.1326 43.7722 98.6572 43.5997V42.6176C98.1909 42.7901 97.6662 42.9096 97.1124 42.9096C96.0923 42.9096 95.6114 42.6176 95.6114 41.6488V38.3575H98.4095V37.3754H95.6114V35.1326L94.4601 35.398ZM100.246 43.7457V37.3754H99.0801V43.7457H100.246ZM100.422 35.345C100.422 34.9071 100.072 34.6682 99.6641 34.6682C99.256 34.6682 98.9062 34.9071 98.9062 35.345C98.9062 35.7963 99.256 36.0219 99.6641 36.0219C100.072 36.0219 100.422 35.7963 100.422 35.345ZM101.033 40.5872C101.033 42.8566 102.942 43.905 104.779 43.905C105.653 43.905 106.396 43.7591 107.052 43.4671V42.4054C106.469 42.7239 105.697 42.923 104.939 42.923C103.569 42.923 102.199 42.193 102.199 40.5607C102.199 38.8885 103.613 38.1984 104.968 38.1984C105.711 38.1984 106.455 38.3975 106.979 38.7691V37.7339C106.382 37.3756 105.609 37.2163 104.822 37.2163C103.001 37.2163 101.033 38.2647 101.033 40.5872ZM107.373 39.0477C107.373 41.3304 111.833 40.7996 111.833 42.14C111.833 42.777 111.046 42.923 110.055 42.923C109.18 42.923 108.116 42.6841 107.402 42.2461V43.2813C108.058 43.6662 109.122 43.905 110.113 43.905C111.629 43.905 112.998 43.4405 112.998 42.1134C112.998 39.8175 108.553 40.4014 108.553 39.0212C108.553 38.3975 109.355 38.1718 110.113 38.1718C110.958 38.1718 111.935 38.424 112.517 38.7691V37.7604C111.862 37.4419 110.973 37.2163 110.04 37.2163C108.728 37.2163 107.373 37.7339 107.373 39.0477Z" fill="#CBD0D2"/>
</svg>
