<svg width="151" height="69" viewBox="0 0 151 69" fill="none" xmlns="http://www.w3.org/2000/svg">
<path fill-rule="evenodd" clip-rule="evenodd" d="M50.2312 58.2097H70.0818V38.2375H50.2312V58.2097ZM43.8945 64.5883H76.417V31.8604H43.8945V64.5883Z" fill="#384054"/>
<path fill-rule="evenodd" clip-rule="evenodd" d="M35.2598 23.4355H41.5835V16.6543H35.2598V23.4355Z" fill="#384054"/>
<path fill-rule="evenodd" clip-rule="evenodd" d="M35.2598 64.5883H41.5835V31.8604H35.2598V64.5883Z" fill="#384054"/>
<path fill-rule="evenodd" clip-rule="evenodd" d="M26.1973 16.6543V31.1928H0V63.9208H26.1973H32.5203V57.5429V45.3954H26.1973V57.5429H6.33453V37.5707H32.5203V36.654V31.1928V16.6543H26.1973Z" fill="#384054"/>
<path fill-rule="evenodd" clip-rule="evenodd" d="M75.5628 16.7074C75.5787 16.6538 75.5995 16.6024 75.6161 16.5474C75.9435 15.3244 75.9075 14.0905 75.5808 12.9558L85.6162 8.42657C86.3221 9.59455 87.4526 10.5055 88.8702 10.8929C89.648 11.1065 90.4317 11.1369 91.1793 11.016L93.5806 20.0281C91.7284 20.6559 90.1338 21.9485 89.1299 23.6979L75.5628 16.7074ZM98.3162 19.8869C97.2419 19.5937 96.1611 19.5285 95.1242 19.6675L92.6905 10.541C94.0858 9.86754 95.194 8.61701 95.6307 6.99792C96.4288 4.04503 94.6953 0.997278 91.7601 0.195696C88.822 -0.608058 85.7947 1.13703 84.9981 4.09209C84.7355 5.06529 84.7527 6.04862 84.9931 6.96026L74.9707 11.4881C74.1266 10.0095 72.7248 8.85379 70.9604 8.37226C67.4337 7.40631 63.7955 9.50404 62.8384 13.0536C61.8778 16.6024 63.9632 20.2628 67.4906 21.2258C70.4387 22.0346 73.4559 20.7001 74.9297 18.1708L88.4737 25.1533C88.4169 25.3192 88.3579 25.4799 88.3118 25.6515C87.1317 30.02 89.6956 34.5247 94.0412 35.7144C98.3853 36.9012 102.864 34.3212 104.042 29.952C105.224 25.5806 102.66 21.0745 98.3162 19.8869Z" fill="#FFD45F"/>
<path fill-rule="evenodd" clip-rule="evenodd" d="M89.791 50.1729V64.4449H91.3453V50.1729H89.791ZM92.3952 59.7527C92.3952 62.9591 94.8433 64.6795 97.369 64.6795C99.9142 64.6795 102.343 62.9591 102.343 59.7527C102.343 56.5464 99.9142 54.8259 97.369 54.8259C94.8433 54.8259 92.3952 56.5464 92.3952 59.7527ZM100.788 59.7527C100.788 61.9229 99.273 63.1937 97.369 63.1937C95.465 63.1937 93.9495 61.9229 93.9495 59.7527C93.9495 57.5826 95.465 56.3118 97.369 56.3118C99.273 56.3118 100.788 57.5826 100.788 59.7527ZM102.713 59.7527C102.713 62.568 104.714 64.6795 107.376 64.6795C109.163 64.6795 110.309 63.8388 110.989 62.9982V64.4449C111.009 66.7715 109.241 67.5339 107.259 67.5339C105.977 67.5339 104.772 67.2016 103.665 66.5759V68.1009C104.772 68.6679 106.074 68.9807 107.453 68.9807C110.037 68.9807 112.544 67.6708 112.544 64.4449V55.0605H111.145V56.6246C110.309 55.6666 109.163 54.8259 107.376 54.8259C104.714 54.8259 102.713 56.9374 102.713 59.7527ZM110.989 58.5797V61.1213C110.465 62.2161 109.221 63.2328 107.55 63.2328C105.744 63.2328 104.267 61.9033 104.267 59.7527C104.267 57.6021 105.744 56.2727 107.55 56.2727C109.221 56.2727 110.465 57.3675 110.989 58.5797ZM115.789 64.4449V55.0605H114.235V64.4449H115.789ZM116.022 52.0693C116.022 51.4241 115.556 51.0722 115.012 51.0722C114.468 51.0722 114.002 51.4241 114.002 52.0693C114.002 52.734 114.468 53.0664 115.012 53.0664C115.556 53.0664 116.022 52.734 116.022 52.0693ZM116.936 57.5239C116.936 60.8867 122.881 60.1046 122.881 62.0793C122.881 63.0177 121.832 63.2328 120.511 63.2328C119.345 63.2328 117.927 62.8808 116.975 62.2357V63.7606C117.849 64.3276 119.268 64.6795 120.589 64.6795C122.609 64.6795 124.436 63.9952 124.436 62.0402C124.436 58.6579 118.51 59.5181 118.51 57.4848C118.51 56.5659 119.578 56.2336 120.589 56.2336C121.716 56.2336 123.017 56.6051 123.794 57.1134V55.6275C122.92 55.1583 121.735 54.8259 120.492 54.8259C118.743 54.8259 116.936 55.5884 116.936 57.5239ZM125.932 52.1475V55.0605H124.184V56.5073H125.932V61.6296C125.932 63.6824 127.215 64.66 129.022 64.66C129.915 64.66 130.828 64.484 131.528 64.2299V62.7831C130.906 63.0373 130.207 63.2132 129.468 63.2132C128.108 63.2132 127.467 62.7831 127.467 61.3559V56.5073H131.198V55.0605H127.467V51.7565L125.932 52.1475ZM133.646 64.4449V55.0605H132.092V64.4449H133.646ZM133.879 52.0693C133.879 51.4241 133.413 51.0722 132.869 51.0722C132.325 51.0722 131.859 51.4241 131.859 52.0693C131.859 52.734 132.325 53.0664 132.869 53.0664C133.413 53.0664 133.879 52.734 133.879 52.0693ZM134.696 59.7918C134.696 63.135 137.241 64.6795 139.689 64.6795C140.855 64.6795 141.846 64.4645 142.72 64.0343V62.4703C141.943 62.9395 140.913 63.2328 139.903 63.2328C138.077 63.2328 136.25 62.1575 136.25 59.7527C136.25 57.2893 138.135 56.2727 139.942 56.2727C140.933 56.2727 141.924 56.5659 142.623 57.1134V55.5884C141.827 55.0605 140.797 54.8259 139.748 54.8259C137.319 54.8259 134.696 56.3704 134.696 59.7918ZM143.148 57.5239C143.148 60.8867 149.094 60.1046 149.094 62.0793C149.094 63.0177 148.045 63.2328 146.723 63.2328C145.558 63.2328 144.139 62.8808 143.187 62.2357V63.7606C144.062 64.3276 145.48 64.6795 146.801 64.6795C148.822 64.6795 150.648 63.9952 150.648 62.0402C150.648 58.6579 144.722 59.5181 144.722 57.4848C144.722 56.5659 145.791 56.2336 146.801 56.2336C147.928 56.2336 149.23 56.6051 150.007 57.1134V55.6275C149.133 55.1583 147.947 54.8259 146.704 54.8259C144.955 54.8259 143.148 55.5884 143.148 57.5239Z" fill="#AFAFAF"/>
</svg>
